<?xml version="1.0" encoding="UTF-8" standalone="no"?><!DOCTYPE svg PUBLIC "-//W3C//DTD SVG 1.1//EN" "http://www.w3.org/Graphics/SVG/1.1/DTD/svg11.dtd"><svg width="100%" height="100%" viewBox="0 0 16 16" version="1.1" xmlns="http://www.w3.org/2000/svg" xmlns:xlink="http://www.w3.org/1999/xlink" xml:space="preserve" xmlns:serif="http://www.serif.com/" style="fill-rule:evenodd;clip-rule:evenodd;stroke-linecap:round;stroke-linejoin:round;stroke-miterlimit:1.5;"><path d="M8.932,0.727c-0.243,-0.97 -1.62,-0.97 -1.864,0l-0.071,0.286c-0.106,0.426 -0.492,0.727 -0.931,0.727c-0.261,0 -0.51,-0.106 -0.691,-0.293l-0.205,-0.211c-0.695,-0.719 -1.888,-0.03 -1.613,0.931l0.08,0.284c0.025,0.086 0.037,0.175 0.037,0.264c-0,0.526 -0.433,0.96 -0.96,0.96c-0.089,-0 -0.177,-0.013 -0.263,-0.037l-0.284,-0.081c-0.96,-0.275 -1.65,0.918 -0.931,1.613l0.211,0.205c0.187,0.181 0.293,0.43 0.293,0.691c0,0.439 -0.301,0.825 -0.727,0.931l-0.286,0.071c-0.97,0.243 -0.97,1.62 0,1.864l0.286,0.071c0.426,0.106 0.727,0.492 0.727,0.931c0,0.261 -0.106,0.51 -0.293,0.691l-0.211,0.205c-0.719,0.695 -0.03,1.888 0.931,1.613l0.284,-0.08c0.086,-0.025 0.175,-0.037 0.264,-0.037c0.527,-0 0.96,0.433 0.96,0.96c0,0.089 -0.012,0.178 -0.037,0.264l-0.081,0.283c-0.275,0.96 0.918,1.65 1.613,0.931l0.205,-0.211c0.181,-0.187 0.43,-0.293 0.691,-0.293c0.439,-0 0.825,0.301 0.931,0.727l0.071,0.286c0.243,0.97 1.62,0.97 1.864,-0l0.071,-0.286c0.106,-0.426 0.492,-0.727 0.931,-0.727c0.261,-0 0.51,0.106 0.691,0.293l0.205,0.211c0.695,0.719 1.888,0.03 1.613,-0.931l-0.08,-0.284c-0.025,-0.086 -0.037,-0.175 -0.037,-0.264c-0,-0.527 0.433,-0.96 0.96,-0.96c0.089,-0 0.178,0.012 0.264,0.037l0.283,0.081c0.96,0.275 1.65,-0.918 0.931,-1.613l-0.211,-0.205c-0.187,-0.181 -0.293,-0.43 -0.293,-0.691c-0,-0.439 0.301,-0.825 0.727,-0.931l0.286,-0.071c0.97,-0.243 0.97,-1.62 -0,-1.864l-0.286,-0.071c-0.426,-0.106 -0.727,-0.492 -0.727,-0.931c-0,-0.261 0.106,-0.51 0.293,-0.691l0.211,-0.205c0.719,-0.695 0.03,-1.888 -0.931,-1.613l-0.284,0.08c-0.086,0.025 -0.175,0.037 -0.264,0.037c-0.526,-0 -0.96,-0.433 -0.96,-0.96c0,-0.089 0.013,-0.177 0.037,-0.263l0.081,-0.284c0.275,-0.96 -0.918,-1.65 -1.613,-0.931l-0.205,0.211c-0.181,0.187 -0.43,0.293 -0.691,0.293c-0.439,0 -0.825,-0.301 -0.931,-0.727l-0.071,-0.286Zm-0.932,12.27c-0.024,0 -0.047,0.001 -0.071,0.001c-2.742,-0 -4.998,-2.257 -4.998,-4.998c0,-2.742 2.256,-4.998 4.998,-4.998c0.024,-0 0.047,-0 0.071,0c2.742,0 4.998,2.256 4.998,4.998c-0,2.742 -2.256,4.998 -4.998,4.998l0,-0.001Z" style="fill:#fff;fill-rule:nonzero;"/><rect x="4.75" y="4.75" width="6.501" height="6.501" style="fill:#fff;fill-opacity:0;stroke:#fff;stroke-width:0.5px;"/><path d="M5.8,8.199l1.6,-0l-0,0.4l0.4,-0l-0,0.4l-0.4,-0l-0,0.4l-1.2,-0l-0,1.6l-0.4,-0l0,-2.8Zm0.4,0.8l1.2,-0l-0,-0.4l-1.2,-0l-0,0.4Z" style="fill:#fff;fill-rule:nonzero;"/><path d="M8.6,10.999l-0.4,-0l0,-2.8l0.4,-0l0,0.4l0.4,-0l0,0.4l0.4,-0l0,0.4l-0.4,-0l0,-0.4l-0.4,-0l0,2Zm0.8,-2.4l0.4,-0l0,-0.4l0.4,-0l-0,2.8l-0.4,-0l0,-2l-0.4,-0l0,-0.4Z" style="fill:#fff;fill-rule:nonzero;"/></svg>